PathFileType	4	(X/Y/Z)	Patient4_TMGait_0pt3_02_left_21.trc.trc
DataRate	CameraRate	NumFrames	NumMarkers	Units	OrigDataRate	OrigDataStartFrame	OrigNumFrames
50.909090909091	50.909090909091	4	33	mm	50.909090909091	53	       141
Frame#	Time	Sacral			L.Shoulder			Chest			R.Shoulder			Neck			R.ASIS			L.ASIS			R.Thigh.Superior			R.Thigh.Lateral			R.Thigh.Inferior			R.Patella			L.Thigh.Superior			L.Thigh.Lateral			L.Thigh.Inferior			L.Patella			L.Shank.Superior			L.Shank.Lateral			L.Shank.Inferior			R.Shank.Superior			R.Shank.Lateral			R.Shank.Inferior			R.Heel			R.Midfoot.Superior			R.Midfoot.Lateral			R.Toe			L.Heel			L.Midfoot.Lateral			L.Midfoot.Superior			L.Toe			L.Elbow			L.Wrist			R.Elbow			R.Wrist			
		X1	Y1	Z1	X2	Y2	Z2	X3	Y3	Z3	X4	Y4	Z4	X5	Y5	Z5	X6	Y6	Z6	X7	Y7	Z7	X8	Y8	Z8	X9	Y9	Z9	X10	Y10	Z10	X11	Y11	Z11	X12	Y12	Z12	X13	Y13	Z13	X14	Y14	Z14	X15	Y15	Z15	X16	Y16	Z16	X17	Y17	Z17	X18	Y18	Z18	X19	Y19	Z19	X20	Y20	Z20	X21	Y21	Z21	X22	Y22	Z22	X23	Y23	Z23	X24	Y24	Z24	X25	Y25	Z25	X26	Y26	Z26	X27	Y27	Z27	X28	Y28	Z28	X29	Y29	Z29	X30	Y30	Z30	X31	Y31	Z31	X32	Y32	Z32	X33	Y33	Z33	

53	42.111428571429	757.310432043747	1002.615889759386	411.923118688497	933.657020853938	1425.906111897566	219.745753339718	1042.723452383882	1354.967706013254	375.882327027297	972.147293903515	1430.776830931088	553.218441554136	926.537833352099	1489.863097192652	377.119533418333	989.112554550750	934.016578079135	520.931835636425	966.410127244350	952.948072352205	248.096997009873	1020.934461875323	729.467820948138	503.393489285942	940.443603752796	625.309131988122	574.312877330278	1015.462670620115	561.534669853520	498.432127587959	1002.403954246356	454.206796301928	523.733607905401	1030.187341725308	751.094379038315	289.142469735617	955.800796768702	624.252384363773	234.041368533504	1047.099726829972	557.081328732339	302.060246742317	1053.602852757672	482.989699059791	312.308138534605	1018.421980755804	408.922447348258	308.110593145918	921.847318305242	301.119765657131	256.853924809570	956.600177262481	188.343689974773	331.829406389182	921.285632477230	392.057892351528	534.971676781427	800.267024197370	361.017074671603	599.396493730336	780.254224767895	250.509868461149	554.064053591555	575.133671724943	197.480108311458	532.863363590555	739.662363037729	128.862736274163	570.621293534894	631.805627595491	135.136020956302	604.988243201504	798.505068255791	30.604861083793	593.073546398778	813.954292341515	40.041513485687	369.590870203836	890.278877075559	36.293717520819	291.787220875762	974.239469480777	96.098850631601	321.408934834269	1102.403318028147	39.991294213177	295.657320451782	947.604699911212	1074.716946107209	95.840336704397	1075.280377459138	848.006236868357	121.057678712363	1022.850410505089	1083.509687656805	673.328702852625	1190.942771220578	886.402439445114	692.028097644046	
54	42.131071428571	755.799900810703	1001.127560139253	406.759514208151	936.079711614469	1425.118615909878	217.424509558952	1042.340382323720	1353.662851007689	375.251318114513	968.865643878193	1428.785653612111	551.730886423435	926.507679859769	1488.685374143621	375.102334559510	987.068630458968	933.371406858014	518.078961593308	966.704115709228	951.764347100605	245.035571459374	1025.804277568652	731.477766495184	499.132686562296	949.797775123150	625.068258928261	570.225837754241	1026.630080443679	563.381846164801	493.580744304112	1016.016627328181	454.528583564734	519.455088690927	1030.120226740009	749.535668172838	286.355678708938	955.628478589776	622.753832346317	231.840908532049	1046.426827552551	555.577783253281	300.711546619394	1052.635939592323	481.325735172739	311.309935072428	1016.602078208278	407.221873381565	307.265173545104	919.090559062361	300.267315169065	255.972222439185	952.037323257143	187.450162293740	331.540341305667	933.209606687819	392.866152964622	530.970204099121	810.629774757360	365.930699330636	594.771014676179	787.898094955315	255.521715925990	550.662316473728	582.070662727038	210.497186433447	527.952789278546	743.401734187320	134.444486951938	568.443625715582	635.181904693274	146.253691952613	601.432522336789	796.814257621353	30.470739460161	593.061465629678	808.041149219938	40.016715055085	369.467064952765	884.374712826101	36.226673919700	291.669847033076	968.341527595573	95.982827231856	321.372751595677	1096.532407100910	39.882767067817	295.597782089596	958.561029322578	1074.851902489008	92.313368184987	1091.653615305700	851.397162162644	118.874543156548	1003.833854365733	1078.970671434749	671.384093957520	1156.054157821017	869.677918182043	693.308521007748	
55	42.150714285714	754.150942914241	999.551526119020	401.889125645549	938.419908788612	1424.244699702984	215.492377483084	1041.786331379815	1352.261607602417	374.990442056691	965.354773499894	1426.708283306976	550.544604820169	926.370112956814	1487.424814696548	373.433435600341	984.876542914001	932.695540636552	515.561655328210	966.875300866278	950.556517377708	242.299292766879	1030.416146568698	733.833570178432	494.937618688168	959.055663437796	625.208956509315	566.211141508366	1037.563260998341	565.779017420421	488.696661685022	1029.610360139908	455.502643216558	514.971258035644	1029.992034206598	747.968275843798	283.858983138483	955.462251338290	621.190518419146	229.909735361276	1045.796492638986	554.053361479122	299.596648534713	1051.739370758709	479.640217107929	310.534846747604	1014.829676328686	405.493639439790	306.604200159375	916.370086982441	299.424060962431	255.226065737498	947.501277383014	186.549741643799	331.316484236654	945.374843620273	394.033516866313	526.781957042579	821.359952031607	370.587754223580	589.856878673687	796.421287514307	260.222016766580	546.884013867408	590.058225330130	221.681465728644	522.504229106276	748.715074570896	139.881045877316	565.764510716992	640.170876222065	156.246657092063	597.427899981743	797.654420638698	30.758452255961	592.817802175711	802.131808804839	40.008798996586	369.348349014299	878.480231375375	36.171831265609	291.559323666620	962.456512043415	95.862733312639	321.350965151591	1090.663486267679	39.773951658487	295.536912122563	969.183060336966	1075.144961295268	89.182517871286	1108.205596173200	855.417715577804	116.860593902681	984.276443981503	1075.077704883415	669.265633165906	1119.889645946237	854.909899710278	693.815719040358	
56	42.170357142857	752.414387580201	997.988539443646	397.328185563211	940.691463095382	1423.394464813354	213.958194599128	1041.081021147320	1350.874379623099	375.095589496474	961.638710468973	1424.659085232298	549.650566831773	926.140054289346	1486.181185781021	372.108521439634	982.562668424065	932.081252086623	513.379859268239	966.968314731577	949.424477886351	239.893597906516	1034.617832037401	736.547653983145	490.912595728585	967.948796080314	625.808727845052	562.375543822610	1047.967090390877	568.736860750686	483.941735774135	1042.862089847833	457.196521754150	510.469439219135	1029.755799393575	746.425169403711	281.624547413642	955.168864539456	619.630251514999	228.224492936962	1045.053162631662	552.531383981001	298.660447822535	1050.729648725755	477.982438581195	309.940368944091	1012.954236178608	403.795593846038	306.086789371109	913.570470352570	298.607704443880	254.592196708873	942.938383330861	185.672389678917	331.141257826175	957.554341287940	395.572354786462	522.583583791747	832.278590427689	374.746774756507	584.867406665401	805.837805385751	264.310172728532	542.904954756875	599.067038272299	230.196072517114	516.831509461207	755.889188197639	144.781609391518	562.722768255050	647.002309689394	164.349372840710	593.191600181708	801.711329349040	31.457489131786	592.291529515867	796.222336650614	40.012323007291	369.235860770088	872.592418968045	36.126470450568	291.454375320542	956.580167368554	95.740615821984	321.336874205970	1084.794005232947	39.668693813291	295.475319450494	979.471993082206	1075.710898033451	86.393550619031	1124.875873521793	860.204270955049	114.979644220203	964.308464653776	1071.976734608749	666.969261620927	1082.874926894889	842.348858675563	693.533985442182	
